<svg xmlns="http://www.w3.org/2000/svg"><style>:root svg:not(:target){display:none}</style><svg fill="none" id="add-button-icon" viewBox="0 0 20 16"><path fill-rule="evenodd" clip-rule="evenodd" d="m13.674 13.522.003-.022h1.347l-.03.21a2.667 2.667 0 0 1-2.64 2.29H3.646a2.667 2.667 0 0 1-2.64-2.29L.19 8 0 6.667h4.556l-.224-2.68A3.68 3.68 0 0 1 11.618 3h-1.37a2.348 2.348 0 0 0-4.587.875l.233 2.792H9.5V8H6.058l.222 2.667h3.44l.014-.167h1.338l-.014.167H12.5V12h-1.553l-.222 2.667h1.629c.663 0 1.226-.488 1.32-1.145ZM4.72 8H1.537l.381 2.667h3.024L4.72 8Zm1.893 6.667L6.391 12H9.61l-.222 2.667H6.613ZM5.053 12l.222 2.667H3.646a1.333 1.333 0 0 1-1.32-1.145L2.11 12h2.944ZM15.8 10V7.2H13V5.8h2.8V3h1.4v2.8H20v1.4h-2.8V10h-1.4Z" fill="currentcolor"></path></svg><svg fill="none" id="bucket-icon" viewBox="0 0 16 16"><path fill-rule="evenodd" clip-rule="evenodd" d="m5.66 3.875.234 2.792h4.213l.232-2.792a2.347 2.347 0 1 0-4.678 0Zm5.784 2.792.224-2.68a3.68 3.68 0 1 0-7.336 0l.224 2.68H0L.19 8l.816 5.71A2.667 2.667 0 0 0 3.646 16h8.708a2.667 2.667 0 0 0 2.64-2.29L15.81 8 16 6.667h-4.556ZM11.334 8h-.054l-.222 2.667h3.024L14.462 8h-3.129ZM9.941 8H6.058l.222 2.667h3.44L9.942 8ZM4.72 8H1.537l.381 2.667h3.024L4.72 8Zm1.893 6.667L6.391 12H9.61l-.222 2.667H6.613ZM10.947 12l-.222 2.667h1.629c.663 0 1.226-.488 1.32-1.145L13.89 12h-2.944Zm-5.894 0 .222 2.667H3.646a1.333 1.333 0 0 1-1.32-1.145L2.11 12h2.944Z" fill="currentcolor"></path></svg><svg fill="none" id="dropdown" viewBox="0 0 10 6"><path fill-rule="evenodd" clip-rule="evenodd" d="M0 1.192 1.239 0 5 3.617 8.761 0 10 1.192 5 6 0 1.192Z" fill="currentcolor"></path></svg><svg fill="none" id="logo-html-academy" viewBox="0 0 12 16"><path d="M11.215 5.754 5.972 2.5v-.001H5.97L.785 5.75V1.407L6 .83l5.215.576v4.347Zm-.004.576L9.126 7.623 5.985 5.656l-.006.573 2.685 1.68-.463.288-2.216-1.388-.006.572 1.75 1.095-.413.291-.01.007-1.321-.82-.006.572.867.538-.883.558L.796 6.39l5.175-3.275 5.24 3.216Zm.004 5.441L6 15.038.785 11.771V7.025l5.193 3.255.008.59-3.562-2.233-.005.573 3.576 2.263.01.605-3.576-2.24-.005.573L6 12.675l3.606-2.272V7.957l1.61-1.011v4.825ZM6 0 0 .662v11.58L6 16l6-3.759V.662L6 0Z" fill="currentcolor"></path></svg><svg fill="none" id="ok-icon" viewBox="0 0 20 20"><path fill-rule="evenodd" clip-rule="evenodd" d="M1.4 1.4C0 2.812 0 5.074 0 9.6v.914c0 4.456 0 6.698 1.4 8.086C2.812 20 5.074 20 9.6 20h.913c4.457 0 6.699 0 8.087-1.4 1.4-1.412 1.4-3.674 1.4-8.2v-.913c0-4.457 0-6.699-1.4-8.087C17.188 0 14.926 0 10.4 0h-.914C5.03 0 2.788 0 1.4 1.4Zm8.62 8.797a3.034 3.034 0 0 0 3.028-3.028 3.038 3.038 0 0 0-6.075 0 3.038 3.038 0 0 0 3.046 3.028Zm0-4.28c.688 0 1.25.563 1.25 1.252 0 .689-.562 1.251-1.25 1.251-.69 0-1.252-.562-1.252-1.251-.018-.69.544-1.251 1.251-1.251Zm1.214 6.764a5.729 5.729 0 0 0 1.76-.725.883.883 0 0 0 .271-1.233.883.883 0 0 0-1.233-.272 3.85 3.85 0 0 1-4.08 0 .903.903 0 0 0-1.233.272.904.904 0 0 0 .308 1.215c.544.345 1.143.58 1.76.725L7.1 14.35a.886.886 0 0 0 0 1.251.861.861 0 0 0 .635.254.94.94 0 0 0 .634-.254l1.668-1.668 1.669 1.668a.887.887 0 0 0 1.251 0 .887.887 0 0 0 0-1.251l-1.723-1.668Z" fill="currentcolor"></path></svg><svg fill="none" id="pagination-back" viewBox="0 0 6 10"><path fill-rule="evenodd" clip-rule="evenodd" d="M4.808 0 6 1.239 2.383 5 6 8.761 4.808 10 0 5l4.808-5Z" fill="currentcolor"></path></svg><svg fill="none" id="pagination-forward" viewBox="0 0 6 10"><path fill-rule="evenodd" clip-rule="evenodd" d="M1.192 0 0 1.239 3.617 5 0 8.761 1.192 10 6 5 1.192 0Z" fill="currentcolor"></path></svg><svg fill="none" id="pinterest-icon" viewBox="0 0 22 22"><path d="M11 0C4.925 0 0 4.925 0 11c0 4.66 2.9 8.644 6.991 10.247-.096-.87-.183-2.21.038-3.16.2-.858 1.29-5.467 1.29-5.467s-.329-.659-.329-1.633c0-1.53.887-2.671 1.99-2.671.94 0 1.392.704 1.392 1.549 0 .944-.6 2.355-.91 3.662-.26 1.095.549 1.988 1.628 1.988 1.955 0 3.458-2.061 3.458-5.037 0-2.634-1.892-4.475-4.595-4.475-3.13 0-4.966 2.347-4.966 4.774 0 .945.364 1.959.818 2.51.09.109.103.204.076.315-.083.348-.269 1.095-.305 1.248-.048.201-.16.244-.368.147-1.374-.64-2.233-2.648-2.233-4.261 0-3.47 2.521-6.657 7.268-6.657 3.816 0 6.782 2.72 6.782 6.353 0 3.791-2.39 6.842-5.708 6.842-1.115 0-2.163-.58-2.522-1.263l-.685 2.615c-.248.955-.919 2.153-1.367 2.883C8.773 21.83 9.866 22 11 22c6.075 0 11-4.925 11-11S17.075 0 11 0Z" fill="currentcolor"></path></svg><svg fill="none" id="range-button" viewBox="0 0 24 25"><circle cx="12" cy="12.111" r="11" fill="#fff" stroke="currentcolor" stroke-width="2"></circle></svg><svg fill="none" id="swiper-back" viewBox="0 0 11 20"><path fill-rule="evenodd" clip-rule="evenodd" d="M9.717 0 11 1.32 2.567 10 11 18.68 9.717 20 0 10 9.717 0Z" fill="currentcolor"></path></svg><svg fill="none" id="swiper-forward" viewBox="0 0 11 20"><path fill-rule="evenodd" clip-rule="evenodd" d="M1.283 0 0 1.32 8.433 10 0 18.68 1.283 20 11 10 1.283 0Z" fill="currentcolor"></path></svg><svg fill="none" id="user-icon" viewBox="0 0 16 16"><path fill-rule="evenodd" clip-rule="evenodd" d="M10.667 4a2.667 2.667 0 1 1-5.334 0 2.667 2.667 0 0 1 5.334 0ZM12 4a4 4 0 1 1-8 0 4 4 0 0 1 8 0Zm-8.803 8.31C4.437 11.277 6.16 10.667 8 10.667s3.564.61 4.803 1.643c1.232 1.027 1.864 2.362 1.864 3.69H16c0-1.768-.843-3.464-2.343-4.714-1.5-1.25-3.535-1.953-5.657-1.953s-4.157.703-5.657 1.953S0 14.232 0 16h1.333c0-1.328.632-2.663 1.864-3.69Z" fill="currentcolor"></path></svg><svg fill="none" id="vk-icon" viewBox="0 0 20 20"><path fill-rule="evenodd" clip-rule="evenodd" d="M1.406 1.406C0 2.812 0 5.074 0 9.6v.8c0 4.525 0 6.788 1.406 8.194C2.812 20 5.074 20 9.6 20h.8c4.525 0 6.788 0 8.194-1.406C20 17.188 20 14.925 20 10.4v-.8c0-4.526 0-6.788-1.406-8.194C17.188 0 14.925 0 10.4 0h-.8C5.074 0 2.812 0 1.406 1.406Zm1.969 4.677c.108 5.2 2.708 8.325 7.267 8.325h.258v-2.975c1.675.167 2.942 1.392 3.45 2.975h2.367c-.65-2.366-2.359-3.675-3.425-4.175 1.066-.616 2.566-2.116 2.925-4.15h-2.15c-.467 1.65-1.85 3.15-3.167 3.292V6.083H8.75v5.767c-1.333-.333-3.017-1.95-3.092-5.767H3.375Z" fill="currentcolor"></path></svg></svg>