<svg width="206" height="16" viewBox="0 0 206 16" fill="none" xmlns="http://www.w3.org/2000/svg">
<path d="M1.416 12V3.6H4.56C5.272 3.6 5.884 3.716 6.396 3.948C6.908 4.172 7.3 4.5 7.572 4.932C7.852 5.356 7.992 5.872 7.992 6.48C7.992 7.072 7.852 7.584 7.572 8.016C7.3 8.44 6.908 8.768 6.396 9C5.884 9.232 5.272 9.348 4.56 9.348H1.908L2.304 8.928V12H1.416ZM2.304 9L1.908 8.568H4.536C5.376 8.568 6.012 8.388 6.444 8.028C6.884 7.66 7.104 7.144 7.104 6.48C7.104 5.808 6.884 5.288 6.444 4.92C6.012 4.552 5.376 4.368 4.536 4.368H1.908L2.304 3.948V9ZM13.456 12V10.608L13.42 10.38V8.052C13.42 7.516 13.268 7.104 12.964 6.816C12.668 6.528 12.224 6.384 11.632 6.384C11.224 6.384 10.836 6.452 10.468 6.588C10.1 6.724 9.78803 6.904 9.53203 7.128L9.14803 6.492C9.46803 6.22 9.85203 6.012 10.3 5.868C10.748 5.716 11.22 5.64 11.716 5.64C12.532 5.64 13.16 5.844 13.6 6.252C14.048 6.652 14.272 7.264 14.272 8.088V12H13.456ZM11.284 12.06C10.812 12.06 10.4 11.984 10.048 11.832C9.70403 11.672 9.44003 11.456 9.25603 11.184C9.07203 10.904 8.98003 10.584 8.98003 10.224C8.98003 9.896 9.05603 9.6 9.20803 9.336C9.36803 9.064 9.62403 8.848 9.97603 8.688C10.336 8.52 10.816 8.436 11.416 8.436H13.588V9.072H11.44C10.832 9.072 10.408 9.18 10.168 9.396C9.93603 9.612 9.82003 9.88 9.82003 10.2C9.82003 10.56 9.96003 10.848 10.24 11.064C10.52 11.28 10.912 11.388 11.416 11.388C11.896 11.388 12.308 11.28 12.652 11.064C13.004 10.84 13.26 10.52 13.42 10.104L13.612 10.692C13.452 11.108 13.172 11.44 12.772 11.688C12.38 11.936 11.884 12.06 11.284 12.06ZM18.1032 12.072C18.6232 12.072 19.0912 11.992 19.5072 11.832C19.9312 11.672 20.2672 11.452 20.5152 11.172C20.7632 10.884 20.8872 10.552 20.8872 10.176C20.8872 9.696 20.6832 9.316 20.2752 9.036C19.8752 8.756 19.3152 8.616 18.5952 8.616L18.5592 8.844C18.9672 8.844 19.3312 8.78 19.6512 8.652C19.9712 8.524 20.2272 8.344 20.4192 8.112C20.6112 7.88 20.7072 7.608 20.7072 7.296C20.7072 6.944 20.5872 6.644 20.3472 6.396C20.1072 6.14 19.7832 5.944 19.3752 5.808C18.9752 5.672 18.5232 5.612 18.0192 5.628C17.6512 5.628 17.2832 5.68 16.9152 5.784C16.5552 5.88 16.1912 6.024 15.8232 6.216L16.0632 6.876C16.3912 6.708 16.7232 6.584 17.0592 6.504C17.3952 6.416 17.7192 6.368 18.0312 6.36C18.3752 6.36 18.6832 6.4 18.9552 6.48C19.2272 6.56 19.4392 6.68 19.5912 6.84C19.7512 7 19.8312 7.192 19.8312 7.416C19.8312 7.624 19.7632 7.804 19.6272 7.956C19.4992 8.108 19.3152 8.224 19.0752 8.304C18.8352 8.384 18.5592 8.424 18.2472 8.424H17.2272V9.048H18.3072C18.8352 9.048 19.2512 9.144 19.5552 9.336C19.8592 9.52 20.0112 9.78 20.0112 10.116C20.0112 10.348 19.9312 10.556 19.7712 10.74C19.6112 10.924 19.3872 11.068 19.0992 11.172C18.8112 11.276 18.4712 11.332 18.0792 11.34C17.6872 11.34 17.2912 11.284 16.8912 11.172C16.4912 11.052 16.1392 10.88 15.8352 10.656L15.5592 11.292C15.9032 11.556 16.2992 11.752 16.7472 11.88C17.1952 12.008 17.6472 12.072 18.1032 12.072ZM26.0734 12.06C25.5294 12.06 25.0374 11.936 24.5974 11.688C24.1574 11.432 23.8054 11.068 23.5414 10.596C23.2854 10.116 23.1574 9.532 23.1574 8.844C23.1574 8.156 23.2854 7.576 23.5414 7.104C23.7974 6.624 24.1454 6.26 24.5854 6.012C25.0254 5.764 25.5214 5.64 26.0734 5.64C26.6734 5.64 27.2094 5.776 27.6814 6.048C28.1614 6.312 28.5374 6.688 28.8094 7.176C29.0814 7.656 29.2174 8.212 29.2174 8.844C29.2174 9.484 29.0814 10.044 28.8094 10.524C28.5374 11.004 28.1614 11.38 27.6814 11.652C27.2094 11.924 26.6734 12.06 26.0734 12.06ZM22.8214 14.328V5.7H23.6374V7.596L23.5534 8.856L23.6734 10.128V14.328H22.8214ZM26.0134 11.304C26.4614 11.304 26.8614 11.204 27.2134 11.004C27.5654 10.796 27.8454 10.508 28.0534 10.14C28.2614 9.764 28.3654 9.332 28.3654 8.844C28.3654 8.356 28.2614 7.928 28.0534 7.56C27.8454 7.192 27.5654 6.904 27.2134 6.696C26.8614 6.488 26.4614 6.384 26.0134 6.384C25.5654 6.384 25.1614 6.488 24.8014 6.696C24.4494 6.904 24.1694 7.192 23.9614 7.56C23.7614 7.928 23.6614 8.356 23.6614 8.844C23.6614 9.332 23.7614 9.764 23.9614 10.14C24.1694 10.508 24.4494 10.796 24.8014 11.004C25.1614 11.204 25.5654 11.304 26.0134 11.304ZM34.9248 12V10.608L34.8888 10.38V8.052C34.8888 7.516 34.7368 7.104 34.4328 6.816C34.1368 6.528 33.6928 6.384 33.1008 6.384C32.6928 6.384 32.3048 6.452 31.9368 6.588C31.5688 6.724 31.2568 6.904 31.0008 7.128L30.6168 6.492C30.9368 6.22 31.3208 6.012 31.7688 5.868C32.2168 5.716 32.6888 5.64 33.1848 5.64C34.0008 5.64 34.6288 5.844 35.0688 6.252C35.5168 6.652 35.7408 7.264 35.7408 8.088V12H34.9248ZM32.7528 12.06C32.2808 12.06 31.8688 11.984 31.5168 11.832C31.1728 11.672 30.9088 11.456 30.7248 11.184C30.5408 10.904 30.4488 10.584 30.4488 10.224C30.4488 9.896 30.5248 9.6 30.6768 9.336C30.8368 9.064 31.0928 8.848 31.4448 8.688C31.8048 8.52 32.2848 8.436 32.8848 8.436H35.0568V9.072H32.9088C32.3008 9.072 31.8768 9.18 31.6368 9.396C31.4048 9.612 31.2888 9.88 31.2888 10.2C31.2888 10.56 31.4288 10.848 31.7088 11.064C31.9888 11.28 32.3808 11.388 32.8848 11.388C33.3648 11.388 33.7768 11.28 34.1208 11.064C34.4728 10.84 34.7288 10.52 34.8888 10.104L35.0808 10.692C34.9208 11.108 34.6408 11.44 34.2408 11.688C33.8488 11.936 33.3528 12.06 32.7528 12.06ZM40.8409 12.072C40.3289 12.072 39.8729 11.988 39.4729 11.82C39.0809 11.652 38.7449 11.396 38.4649 11.052C38.1849 10.708 37.9729 10.284 37.8289 9.78C37.6849 9.268 37.6129 8.676 37.6129 8.004C37.6129 7.404 37.6689 6.88 37.7809 6.432C37.8929 5.976 38.0489 5.584 38.2489 5.256C38.4489 4.928 38.6809 4.652 38.9449 4.428C39.2169 4.196 39.5089 4.012 39.8209 3.876C40.1409 3.732 40.4689 3.624 40.8049 3.552L43.6369 2.892L43.7809 3.684L41.1169 4.284C40.9489 4.324 40.7449 4.38 40.5049 4.452C40.2729 4.524 40.0329 4.632 39.7849 4.776C39.5449 4.92 39.3209 5.12 39.1129 5.376C38.9049 5.632 38.7369 5.964 38.6089 6.372C38.4889 6.772 38.4289 7.272 38.4289 7.872C38.4289 8 38.4329 8.104 38.4409 8.184C38.4489 8.256 38.4569 8.336 38.4649 8.424C38.4809 8.504 38.4929 8.624 38.5009 8.784L38.1289 8.472C38.2169 7.984 38.3969 7.56 38.6689 7.2C38.9409 6.832 39.2809 6.548 39.6889 6.348C40.1049 6.14 40.5649 6.036 41.0689 6.036C41.6529 6.036 42.1729 6.164 42.6289 6.42C43.0849 6.668 43.4409 7.016 43.6969 7.464C43.9609 7.912 44.0929 8.432 44.0929 9.024C44.0929 9.608 43.9569 10.132 43.6849 10.596C43.4209 11.06 43.0449 11.424 42.5569 11.688C42.0689 11.944 41.4969 12.072 40.8409 12.072ZM40.9369 11.364C41.3849 11.364 41.7809 11.264 42.1249 11.064C42.4689 10.856 42.7369 10.576 42.9289 10.224C43.1289 9.872 43.2289 9.476 43.2289 9.036C43.2289 8.604 43.1289 8.22 42.9289 7.884C42.7369 7.548 42.4689 7.284 42.1249 7.092C41.7809 6.892 41.3809 6.792 40.9249 6.792C40.4769 6.792 40.0809 6.888 39.7369 7.08C39.3929 7.264 39.1209 7.524 38.9209 7.86C38.7289 8.196 38.6329 8.584 38.6329 9.024C38.6329 9.464 38.7289 9.86 38.9209 10.212C39.1209 10.564 39.3929 10.844 39.7369 11.052C40.0889 11.26 40.4889 11.364 40.9369 11.364ZM48.511 12.06C47.903 12.06 47.355 11.924 46.867 11.652C46.387 11.372 46.007 10.992 45.727 10.512C45.447 10.024 45.307 9.468 45.307 8.844C45.307 8.212 45.447 7.656 45.727 7.176C46.007 6.696 46.387 6.32 46.867 6.048C47.347 5.776 47.895 5.64 48.511 5.64C49.135 5.64 49.687 5.776 50.167 6.048C50.655 6.32 51.035 6.696 51.307 7.176C51.587 7.656 51.727 8.212 51.727 8.844C51.727 9.468 51.587 10.024 51.307 10.512C51.035 10.992 50.655 11.372 50.167 11.652C49.679 11.924 49.127 12.06 48.511 12.06ZM48.511 11.304C48.967 11.304 49.371 11.204 49.723 11.004C50.075 10.796 50.351 10.508 50.551 10.14C50.759 9.764 50.863 9.332 50.863 8.844C50.863 8.348 50.759 7.916 50.551 7.548C50.351 7.18 50.075 6.896 49.723 6.696C49.371 6.488 48.971 6.384 48.523 6.384C48.075 6.384 47.675 6.488 47.323 6.696C46.971 6.896 46.691 7.18 46.483 7.548C46.275 7.916 46.171 8.348 46.171 8.844C46.171 9.332 46.275 9.764 46.483 10.14C46.691 10.508 46.971 10.796 47.323 11.004C47.675 11.204 48.071 11.304 48.511 11.304ZM54.5136 12V6.216L54.7296 6.444H52.1256V5.7H57.7536V6.444H55.1496L55.3656 6.216V12H54.5136ZM62.8974 12V10.608L62.8614 10.38V8.052C62.8614 7.516 62.7094 7.104 62.4054 6.816C62.1094 6.528 61.6654 6.384 61.0734 6.384C60.6654 6.384 60.2774 6.452 59.9094 6.588C59.5414 6.724 59.2294 6.904 58.9734 7.128L58.5894 6.492C58.9094 6.22 59.2934 6.012 59.7414 5.868C60.1894 5.716 60.6614 5.64 61.1574 5.64C61.9734 5.64 62.6014 5.844 63.0414 6.252C63.4894 6.652 63.7134 7.264 63.7134 8.088V12H62.8974ZM60.7254 12.06C60.2534 12.06 59.8414 11.984 59.4894 11.832C59.1454 11.672 58.8814 11.456 58.6974 11.184C58.5134 10.904 58.4214 10.584 58.4214 10.224C58.4214 9.896 58.4974 9.6 58.6494 9.336C58.8094 9.064 59.0654 8.848 59.4174 8.688C59.7774 8.52 60.2574 8.436 60.8574 8.436H63.0294V9.072H60.8814C60.2734 9.072 59.8494 9.18 59.6094 9.396C59.3774 9.612 59.2614 9.88 59.2614 10.2C59.2614 10.56 59.4014 10.848 59.6814 11.064C59.9614 11.28 60.3534 11.388 60.8574 11.388C61.3374 11.388 61.7494 11.28 62.0934 11.064C62.4454 10.84 62.7014 10.52 62.8614 10.104L63.0534 10.692C62.8934 11.108 62.6134 11.44 62.2134 11.688C61.8214 11.936 61.3254 12.06 60.7254 12.06ZM65.9815 12V5.7H66.8335V8.484H70.8055V5.7H71.6575V12H70.8055V9.216H66.8335V12H65.9815ZM76.6712 12.06C76.0632 12.06 75.5152 11.924 75.0272 11.652C74.5472 11.372 74.1672 10.992 73.8872 10.512C73.6072 10.024 73.4672 9.468 73.4672 8.844C73.4672 8.212 73.6072 7.656 73.8872 7.176C74.1672 6.696 74.5472 6.32 75.0272 6.048C75.5072 5.776 76.0552 5.64 76.6712 5.64C77.2952 5.64 77.8472 5.776 78.3272 6.048C78.8152 6.32 79.1952 6.696 79.4672 7.176C79.7472 7.656 79.8872 8.212 79.8872 8.844C79.8872 9.468 79.7472 10.024 79.4672 10.512C79.1952 10.992 78.8152 11.372 78.3272 11.652C77.8392 11.924 77.2872 12.06 76.6712 12.06ZM76.6712 11.304C77.1272 11.304 77.5312 11.204 77.8832 11.004C78.2352 10.796 78.5112 10.508 78.7112 10.14C78.9192 9.764 79.0232 9.332 79.0232 8.844C79.0232 8.348 78.9192 7.916 78.7112 7.548C78.5112 7.18 78.2352 6.896 77.8832 6.696C77.5312 6.488 77.1312 6.384 76.6832 6.384C76.2352 6.384 75.8352 6.488 75.4832 6.696C75.1312 6.896 74.8512 7.18 74.6432 7.548C74.4352 7.916 74.3312 8.348 74.3312 8.844C74.3312 9.332 74.4352 9.764 74.6432 10.14C74.8512 10.508 75.1312 10.796 75.4832 11.004C75.8352 11.204 76.2312 11.304 76.6712 11.304ZM84.8487 12V5.7H87.6327C88.3447 5.7 88.9047 5.836 89.3127 6.108C89.7287 6.38 89.9367 6.78 89.9367 7.308C89.9367 7.82 89.7407 8.216 89.3487 8.496C88.9567 8.768 88.4407 8.904 87.8007 8.904L87.9687 8.652C88.7207 8.652 89.2727 8.792 89.6247 9.072C89.9767 9.352 90.1527 9.756 90.1527 10.284C90.1527 10.828 89.9527 11.252 89.5527 11.556C89.1607 11.852 88.5487 12 87.7167 12H84.8487ZM85.6767 11.328H87.6807C88.2167 11.328 88.6207 11.244 88.8927 11.076C89.1727 10.9 89.3127 10.62 89.3127 10.236C89.3127 9.852 89.1887 9.572 88.9407 9.396C88.6927 9.22 88.3007 9.132 87.7647 9.132H85.6767V11.328ZM85.6767 8.496H87.5727C88.0607 8.496 88.4327 8.404 88.6887 8.22C88.9527 8.036 89.0847 7.768 89.0847 7.416C89.0847 7.064 88.9527 6.8 88.6887 6.624C88.4327 6.448 88.0607 6.36 87.5727 6.36H85.6767V8.496Z" fill="currentcolor"/>
<path d="M102.321 3.6H103.197V12H102.321V3.6ZM97.0646 12H96.1766V3.6H97.0646V12ZM102.405 8.124H96.9686V7.344H102.405V8.124ZM107.57 12V4.368H104.618V3.6H111.41V4.368H108.458V12H107.57ZM112.829 12V3.6H113.561L117.401 10.152H117.017L120.821 3.6H121.553V12H120.701V4.932H120.905L117.401 10.932H116.981L113.453 4.932H113.681V12H112.829ZM124.29 12V3.6H125.178V11.232H129.882V12H124.29ZM133.153 12L136.993 3.6H137.869L141.709 12H140.773L137.245 4.116H137.605L134.077 12H133.153ZM134.665 9.756L134.929 9.036H139.813L140.077 9.756H134.665ZM145.476 12.06C144.852 12.06 144.292 11.924 143.796 11.652C143.308 11.372 142.924 10.992 142.644 10.512C142.364 10.024 142.224 9.468 142.224 8.844C142.224 8.212 142.364 7.656 142.644 7.176C142.924 6.696 143.308 6.32 143.796 6.048C144.292 5.776 144.852 5.64 145.476 5.64C146.012 5.64 146.496 5.744 146.928 5.952C147.36 6.16 147.7 6.472 147.948 6.888L147.312 7.32C147.096 7 146.828 6.764 146.508 6.612C146.188 6.46 145.84 6.384 145.464 6.384C145.016 6.384 144.612 6.488 144.252 6.696C143.892 6.896 143.608 7.18 143.4 7.548C143.192 7.916 143.088 8.348 143.088 8.844C143.088 9.34 143.192 9.772 143.4 10.14C143.608 10.508 143.892 10.796 144.252 11.004C144.612 11.204 145.016 11.304 145.464 11.304C145.84 11.304 146.188 11.228 146.508 11.076C146.828 10.924 147.096 10.692 147.312 10.38L147.948 10.812C147.7 11.22 147.36 11.532 146.928 11.748C146.496 11.956 146.012 12.06 145.476 12.06ZM153.57 12V10.608L153.534 10.38V8.052C153.534 7.516 153.382 7.104 153.078 6.816C152.782 6.528 152.338 6.384 151.746 6.384C151.338 6.384 150.95 6.452 150.582 6.588C150.214 6.724 149.902 6.904 149.646 7.128L149.262 6.492C149.582 6.22 149.966 6.012 150.414 5.868C150.862 5.716 151.334 5.64 151.83 5.64C152.646 5.64 153.274 5.844 153.714 6.252C154.162 6.652 154.386 7.264 154.386 8.088V12H153.57ZM151.398 12.06C150.926 12.06 150.514 11.984 150.162 11.832C149.818 11.672 149.554 11.456 149.37 11.184C149.186 10.904 149.094 10.584 149.094 10.224C149.094 9.896 149.17 9.6 149.322 9.336C149.482 9.064 149.738 8.848 150.09 8.688C150.45 8.52 150.93 8.436 151.53 8.436H153.702V9.072H151.554C150.946 9.072 150.522 9.18 150.282 9.396C150.05 9.612 149.934 9.88 149.934 10.2C149.934 10.56 150.074 10.848 150.354 11.064C150.634 11.28 151.026 11.388 151.53 11.388C152.01 11.388 152.422 11.28 152.766 11.064C153.118 10.84 153.374 10.52 153.534 10.104L153.726 10.692C153.566 11.108 153.286 11.44 152.886 11.688C152.494 11.936 151.998 12.06 151.398 12.06ZM159.208 12.06C158.608 12.06 158.068 11.924 157.588 11.652C157.116 11.38 156.744 11.004 156.472 10.524C156.2 10.036 156.064 9.476 156.064 8.844C156.064 8.204 156.2 7.644 156.472 7.164C156.744 6.684 157.116 6.312 157.588 6.048C158.068 5.776 158.608 5.64 159.208 5.64C159.76 5.64 160.252 5.764 160.684 6.012C161.124 6.26 161.472 6.624 161.728 7.104C161.992 7.576 162.124 8.156 162.124 8.844C162.124 9.524 161.996 10.104 161.74 10.584C161.484 11.064 161.136 11.432 160.696 11.688C160.264 11.936 159.768 12.06 159.208 12.06ZM159.268 11.304C159.716 11.304 160.116 11.204 160.468 11.004C160.828 10.796 161.108 10.508 161.308 10.14C161.516 9.764 161.62 9.332 161.62 8.844C161.62 8.348 161.516 7.916 161.308 7.548C161.108 7.18 160.828 6.896 160.468 6.696C160.116 6.488 159.716 6.384 159.268 6.384C158.828 6.384 158.432 6.488 158.08 6.696C157.728 6.896 157.448 7.18 157.24 7.548C157.032 7.916 156.928 8.348 156.928 8.844C156.928 9.332 157.032 9.764 157.24 10.14C157.448 10.508 157.728 10.796 158.08 11.004C158.432 11.204 158.828 11.304 159.268 11.304ZM161.644 12V10.104L161.728 8.832L161.608 7.56V3.096H162.46V12H161.644ZM167.509 12.06C166.853 12.06 166.277 11.924 165.781 11.652C165.285 11.372 164.897 10.992 164.617 10.512C164.337 10.024 164.197 9.468 164.197 8.844C164.197 8.22 164.329 7.668 164.593 7.188C164.865 6.708 165.233 6.332 165.697 6.06C166.169 5.78 166.697 5.64 167.281 5.64C167.873 5.64 168.397 5.776 168.853 6.048C169.317 6.312 169.681 6.688 169.945 7.176C170.209 7.656 170.341 8.212 170.341 8.844C170.341 8.884 170.337 8.928 170.329 8.976C170.329 9.016 170.329 9.06 170.329 9.108H164.845V8.472H169.873L169.537 8.724C169.537 8.268 169.437 7.864 169.237 7.512C169.045 7.152 168.781 6.872 168.445 6.672C168.109 6.472 167.721 6.372 167.281 6.372C166.849 6.372 166.461 6.472 166.117 6.672C165.773 6.872 165.505 7.152 165.313 7.512C165.121 7.872 165.025 8.284 165.025 8.748V8.88C165.025 9.36 165.129 9.784 165.337 10.152C165.553 10.512 165.849 10.796 166.225 11.004C166.609 11.204 167.045 11.304 167.533 11.304C167.917 11.304 168.273 11.236 168.601 11.1C168.937 10.964 169.225 10.756 169.465 10.476L169.945 11.028C169.665 11.364 169.313 11.62 168.889 11.796C168.473 11.972 168.013 12.06 167.509 12.06ZM179.947 5.64C180.459 5.64 180.903 5.74 181.279 5.94C181.663 6.132 181.959 6.428 182.167 6.828C182.383 7.228 182.491 7.732 182.491 8.34V12H181.639V8.424C181.639 7.76 181.479 7.26 181.159 6.924C180.847 6.58 180.403 6.408 179.827 6.408C179.395 6.408 179.019 6.5 178.699 6.684C178.387 6.86 178.143 7.12 177.967 7.464C177.799 7.8 177.715 8.208 177.715 8.688V12H176.863V8.424C176.863 7.76 176.703 7.26 176.383 6.924C176.063 6.58 175.615 6.408 175.039 6.408C174.615 6.408 174.243 6.5 173.923 6.684C173.603 6.86 173.355 7.12 173.179 7.464C173.011 7.8 172.927 8.208 172.927 8.688V12H172.075V5.7H172.891V7.404L172.759 7.104C172.951 6.648 173.259 6.292 173.683 6.036C174.115 5.772 174.623 5.64 175.207 5.64C175.823 5.64 176.347 5.796 176.779 6.108C177.211 6.412 177.491 6.872 177.619 7.488L177.283 7.356C177.467 6.844 177.791 6.432 178.255 6.12C178.727 5.8 179.291 5.64 179.947 5.64ZM184.732 14.388C184.436 14.388 184.152 14.34 183.88 14.244C183.616 14.148 183.388 14.004 183.196 13.812L183.592 13.176C183.752 13.328 183.924 13.444 184.108 13.524C184.3 13.612 184.512 13.656 184.744 13.656C185.024 13.656 185.264 13.576 185.464 13.416C185.672 13.264 185.868 12.992 186.052 12.6L186.46 11.676L186.556 11.544L189.148 5.7H189.988L186.832 12.756C186.656 13.164 186.46 13.488 186.244 13.728C186.036 13.968 185.808 14.136 185.56 14.232C185.312 14.336 185.036 14.388 184.732 14.388ZM186.412 12.18L183.508 5.7H184.396L186.964 11.484L186.412 12.18Z" fill="#BDBDBD"/>
<path d="M205.215 5.75392L199.972 2.49957V2.49875L199.971 2.49916L199.971 2.49875V2.49957L194.785 5.75013V1.40658L200 0.830884L205.215 1.40658V5.75392ZM205.211 6.32987L203.126 7.62344L199.985 5.65607L199.979 6.22863L202.664 7.9096L202.201 8.19683L199.985 6.80853L199.979 7.3811L201.729 8.47648L201.316 8.76717L201.306 8.77351L199.985 7.95383L199.979 8.52631L200.847 9.06404L199.963 9.62244L194.796 6.3886L199.971 3.1139V3.11448L205.211 6.32987ZM205.215 11.7713L200 15.0384L194.785 11.7713V7.02542L199.978 10.2796L199.986 10.8693L196.424 8.63702L196.419 9.20959L199.995 11.4728L200.004 12.0782L196.429 9.83883L196.424 10.4113L200 12.6745L203.606 10.4026V7.95712L205.215 6.94552V11.7713ZM200 -8.11543e-07L194 0.662267V12.2411L200 16L206 12.2411V0.662267L200 -8.11543e-07Z" fill="currentcolor"/>
</svg>
