<svg width="189" height="13" viewBox="0 0 189 13" fill="none" xmlns="http://www.w3.org/2000/svg">
<path d="M0.416 10V1.6H3.56C4.272 1.6 4.884 1.716 5.396 1.948C5.908 2.172 6.3 2.5 6.572 2.932C6.852 3.356 6.992 3.872 6.992 4.48C6.992 5.072 6.852 5.584 6.572 6.016C6.3 6.44 5.908 6.768 5.396 7C4.884 7.232 4.272 7.348 3.56 7.348H0.908L1.304 6.928V10H0.416ZM1.304 7L0.908 6.568H3.536C4.376 6.568 5.012 6.388 5.444 6.028C5.884 5.66 6.104 5.144 6.104 4.48C6.104 3.808 5.884 3.288 5.444 2.92C5.012 2.552 4.376 2.368 3.536 2.368H0.908L1.304 1.948V7ZM12.456 10V8.608L12.42 8.38V6.052C12.42 5.516 12.268 5.104 11.964 4.816C11.668 4.528 11.224 4.384 10.632 4.384C10.224 4.384 9.83603 4.452 9.46803 4.588C9.10003 4.724 8.78803 4.904 8.53203 5.128L8.14803 4.492C8.46803 4.22 8.85203 4.012 9.30003 3.868C9.74803 3.716 10.22 3.64 10.716 3.64C11.532 3.64 12.16 3.844 12.6 4.252C13.048 4.652 13.272 5.264 13.272 6.088V10H12.456ZM10.284 10.06C9.81203 10.06 9.40003 9.984 9.04803 9.832C8.70403 9.672 8.44003 9.456 8.25603 9.184C8.07203 8.904 7.98003 8.584 7.98003 8.224C7.98003 7.896 8.05603 7.6 8.20803 7.336C8.36803 7.064 8.62403 6.848 8.97603 6.688C9.33603 6.52 9.81603 6.436 10.416 6.436H12.588V7.072H10.44C9.83203 7.072 9.40803 7.18 9.16803 7.396C8.93603 7.612 8.82003 7.88 8.82003 8.2C8.82003 8.56 8.96003 8.848 9.24003 9.064C9.52003 9.28 9.91203 9.388 10.416 9.388C10.896 9.388 11.308 9.28 11.652 9.064C12.004 8.84 12.26 8.52 12.42 8.104L12.612 8.692C12.452 9.108 12.172 9.44 11.772 9.688C11.38 9.936 10.884 10.06 10.284 10.06ZM17.1032 10.072C17.6232 10.072 18.0912 9.992 18.5072 9.832C18.9312 9.672 19.2672 9.452 19.5152 9.172C19.7632 8.884 19.8872 8.552 19.8872 8.176C19.8872 7.696 19.6832 7.316 19.2752 7.036C18.8752 6.756 18.3152 6.616 17.5952 6.616L17.5592 6.844C17.9672 6.844 18.3312 6.78 18.6512 6.652C18.9712 6.524 19.2272 6.344 19.4192 6.112C19.6112 5.88 19.7072 5.608 19.7072 5.296C19.7072 4.944 19.5872 4.644 19.3472 4.396C19.1072 4.14 18.7832 3.944 18.3752 3.808C17.9752 3.672 17.5232 3.612 17.0192 3.628C16.6512 3.628 16.2832 3.68 15.9152 3.784C15.5552 3.88 15.1912 4.024 14.8232 4.216L15.0632 4.876C15.3912 4.708 15.7232 4.584 16.0592 4.504C16.3952 4.416 16.7192 4.368 17.0312 4.36C17.3752 4.36 17.6832 4.4 17.9552 4.48C18.2272 4.56 18.4392 4.68 18.5912 4.84C18.7512 5 18.8312 5.192 18.8312 5.416C18.8312 5.624 18.7632 5.804 18.6272 5.956C18.4992 6.108 18.3152 6.224 18.0752 6.304C17.8352 6.384 17.5592 6.424 17.2472 6.424H16.2272V7.048H17.3072C17.8352 7.048 18.2512 7.144 18.5552 7.336C18.8592 7.52 19.0112 7.78 19.0112 8.116C19.0112 8.348 18.9312 8.556 18.7712 8.74C18.6112 8.924 18.3872 9.068 18.0992 9.172C17.8112 9.276 17.4712 9.332 17.0792 9.34C16.6872 9.34 16.2912 9.284 15.8912 9.172C15.4912 9.052 15.1392 8.88 14.8352 8.656L14.5592 9.292C14.9032 9.556 15.2992 9.752 15.7472 9.88C16.1952 10.008 16.6472 10.072 17.1032 10.072ZM25.0734 10.06C24.5294 10.06 24.0374 9.936 23.5974 9.688C23.1574 9.432 22.8054 9.068 22.5414 8.596C22.2854 8.116 22.1574 7.532 22.1574 6.844C22.1574 6.156 22.2854 5.576 22.5414 5.104C22.7974 4.624 23.1454 4.26 23.5854 4.012C24.0254 3.764 24.5214 3.64 25.0734 3.64C25.6734 3.64 26.2094 3.776 26.6814 4.048C27.1614 4.312 27.5374 4.688 27.8094 5.176C28.0814 5.656 28.2174 6.212 28.2174 6.844C28.2174 7.484 28.0814 8.044 27.8094 8.524C27.5374 9.004 27.1614 9.38 26.6814 9.652C26.2094 9.924 25.6734 10.06 25.0734 10.06ZM21.8214 12.328V3.7H22.6374V5.596L22.5534 6.856L22.6734 8.128V12.328H21.8214ZM25.0134 9.304C25.4614 9.304 25.8614 9.204 26.2134 9.004C26.5654 8.796 26.8454 8.508 27.0534 8.14C27.2614 7.764 27.3654 7.332 27.3654 6.844C27.3654 6.356 27.2614 5.928 27.0534 5.56C26.8454 5.192 26.5654 4.904 26.2134 4.696C25.8614 4.488 25.4614 4.384 25.0134 4.384C24.5654 4.384 24.1614 4.488 23.8014 4.696C23.4494 4.904 23.1694 5.192 22.9614 5.56C22.7614 5.928 22.6614 6.356 22.6614 6.844C22.6614 7.332 22.7614 7.764 22.9614 8.14C23.1694 8.508 23.4494 8.796 23.8014 9.004C24.1614 9.204 24.5654 9.304 25.0134 9.304ZM33.9248 10V8.608L33.8888 8.38V6.052C33.8888 5.516 33.7368 5.104 33.4328 4.816C33.1368 4.528 32.6928 4.384 32.1008 4.384C31.6928 4.384 31.3048 4.452 30.9368 4.588C30.5688 4.724 30.2568 4.904 30.0008 5.128L29.6168 4.492C29.9368 4.22 30.3208 4.012 30.7688 3.868C31.2168 3.716 31.6888 3.64 32.1848 3.64C33.0008 3.64 33.6288 3.844 34.0688 4.252C34.5168 4.652 34.7408 5.264 34.7408 6.088V10H33.9248ZM31.7528 10.06C31.2808 10.06 30.8688 9.984 30.5168 9.832C30.1728 9.672 29.9088 9.456 29.7248 9.184C29.5408 8.904 29.4488 8.584 29.4488 8.224C29.4488 7.896 29.5248 7.6 29.6768 7.336C29.8368 7.064 30.0928 6.848 30.4448 6.688C30.8048 6.52 31.2848 6.436 31.8848 6.436H34.0568V7.072H31.9088C31.3008 7.072 30.8768 7.18 30.6368 7.396C30.4048 7.612 30.2888 7.88 30.2888 8.2C30.2888 8.56 30.4288 8.848 30.7088 9.064C30.9888 9.28 31.3808 9.388 31.8848 9.388C32.3648 9.388 32.7768 9.28 33.1208 9.064C33.4728 8.84 33.7288 8.52 33.8888 8.104L34.0808 8.692C33.9208 9.108 33.6408 9.44 33.2408 9.688C32.8488 9.936 32.3528 10.06 31.7528 10.06ZM39.8409 10.072C39.3289 10.072 38.8729 9.988 38.4729 9.82C38.0809 9.652 37.7449 9.396 37.4649 9.052C37.1849 8.708 36.9729 8.284 36.8289 7.78C36.6849 7.268 36.6129 6.676 36.6129 6.004C36.6129 5.404 36.6689 4.88 36.7809 4.432C36.8929 3.976 37.0489 3.584 37.2489 3.256C37.4489 2.928 37.6809 2.652 37.9449 2.428C38.2169 2.196 38.5089 2.012 38.8209 1.876C39.1409 1.732 39.4689 1.624 39.8049 1.552L42.6369 0.891999L42.7809 1.684L40.1169 2.284C39.9489 2.324 39.7449 2.38 39.5049 2.452C39.2729 2.524 39.0329 2.632 38.7849 2.776C38.5449 2.92 38.3209 3.12 38.1129 3.376C37.9049 3.632 37.7369 3.964 37.6089 4.372C37.4889 4.772 37.4289 5.272 37.4289 5.872C37.4289 6 37.4329 6.104 37.4409 6.184C37.4489 6.256 37.4569 6.336 37.4649 6.424C37.4809 6.504 37.4929 6.624 37.5009 6.784L37.1289 6.472C37.2169 5.984 37.3969 5.56 37.6689 5.2C37.9409 4.832 38.2809 4.548 38.6889 4.348C39.1049 4.14 39.5649 4.036 40.0689 4.036C40.6529 4.036 41.1729 4.164 41.6289 4.42C42.0849 4.668 42.4409 5.016 42.6969 5.464C42.9609 5.912 43.0929 6.432 43.0929 7.024C43.0929 7.608 42.9569 8.132 42.6849 8.596C42.4209 9.06 42.0449 9.424 41.5569 9.688C41.0689 9.944 40.4969 10.072 39.8409 10.072ZM39.9369 9.364C40.3849 9.364 40.7809 9.264 41.1249 9.064C41.4689 8.856 41.7369 8.576 41.9289 8.224C42.1289 7.872 42.2289 7.476 42.2289 7.036C42.2289 6.604 42.1289 6.22 41.9289 5.884C41.7369 5.548 41.4689 5.284 41.1249 5.092C40.7809 4.892 40.3809 4.792 39.9249 4.792C39.4769 4.792 39.0809 4.888 38.7369 5.08C38.3929 5.264 38.1209 5.524 37.9209 5.86C37.7289 6.196 37.6329 6.584 37.6329 7.024C37.6329 7.464 37.7289 7.86 37.9209 8.212C38.1209 8.564 38.3929 8.844 38.7369 9.052C39.0889 9.26 39.4889 9.364 39.9369 9.364ZM47.511 10.06C46.903 10.06 46.355 9.924 45.867 9.652C45.387 9.372 45.007 8.992 44.727 8.512C44.447 8.024 44.307 7.468 44.307 6.844C44.307 6.212 44.447 5.656 44.727 5.176C45.007 4.696 45.387 4.32 45.867 4.048C46.347 3.776 46.895 3.64 47.511 3.64C48.135 3.64 48.687 3.776 49.167 4.048C49.655 4.32 50.035 4.696 50.307 5.176C50.587 5.656 50.727 6.212 50.727 6.844C50.727 7.468 50.587 8.024 50.307 8.512C50.035 8.992 49.655 9.372 49.167 9.652C48.679 9.924 48.127 10.06 47.511 10.06ZM47.511 9.304C47.967 9.304 48.371 9.204 48.723 9.004C49.075 8.796 49.351 8.508 49.551 8.14C49.759 7.764 49.863 7.332 49.863 6.844C49.863 6.348 49.759 5.916 49.551 5.548C49.351 5.18 49.075 4.896 48.723 4.696C48.371 4.488 47.971 4.384 47.523 4.384C47.075 4.384 46.675 4.488 46.323 4.696C45.971 4.896 45.691 5.18 45.483 5.548C45.275 5.916 45.171 6.348 45.171 6.844C45.171 7.332 45.275 7.764 45.483 8.14C45.691 8.508 45.971 8.796 46.323 9.004C46.675 9.204 47.071 9.304 47.511 9.304ZM53.5136 10V4.216L53.7296 4.444H51.1256V3.7H56.7536V4.444H54.1496L54.3656 4.216V10H53.5136ZM61.8974 10V8.608L61.8614 8.38V6.052C61.8614 5.516 61.7094 5.104 61.4054 4.816C61.1094 4.528 60.6654 4.384 60.0734 4.384C59.6654 4.384 59.2774 4.452 58.9094 4.588C58.5414 4.724 58.2294 4.904 57.9734 5.128L57.5894 4.492C57.9094 4.22 58.2934 4.012 58.7414 3.868C59.1894 3.716 59.6614 3.64 60.1574 3.64C60.9734 3.64 61.6014 3.844 62.0414 4.252C62.4894 4.652 62.7134 5.264 62.7134 6.088V10H61.8974ZM59.7254 10.06C59.2534 10.06 58.8414 9.984 58.4894 9.832C58.1454 9.672 57.8814 9.456 57.6974 9.184C57.5134 8.904 57.4214 8.584 57.4214 8.224C57.4214 7.896 57.4974 7.6 57.6494 7.336C57.8094 7.064 58.0654 6.848 58.4174 6.688C58.7774 6.52 59.2574 6.436 59.8574 6.436H62.0294V7.072H59.8814C59.2734 7.072 58.8494 7.18 58.6094 7.396C58.3774 7.612 58.2614 7.88 58.2614 8.2C58.2614 8.56 58.4014 8.848 58.6814 9.064C58.9614 9.28 59.3534 9.388 59.8574 9.388C60.3374 9.388 60.7494 9.28 61.0934 9.064C61.4454 8.84 61.7014 8.52 61.8614 8.104L62.0534 8.692C61.8934 9.108 61.6134 9.44 61.2134 9.688C60.8214 9.936 60.3254 10.06 59.7254 10.06ZM64.9815 10V3.7H65.8335V6.484H69.8055V3.7H70.6575V10H69.8055V7.216H65.8335V10H64.9815ZM75.6712 10.06C75.0632 10.06 74.5152 9.924 74.0272 9.652C73.5472 9.372 73.1672 8.992 72.8872 8.512C72.6072 8.024 72.4672 7.468 72.4672 6.844C72.4672 6.212 72.6072 5.656 72.8872 5.176C73.1672 4.696 73.5472 4.32 74.0272 4.048C74.5072 3.776 75.0552 3.64 75.6712 3.64C76.2952 3.64 76.8472 3.776 77.3272 4.048C77.8152 4.32 78.1952 4.696 78.4672 5.176C78.7472 5.656 78.8872 6.212 78.8872 6.844C78.8872 7.468 78.7472 8.024 78.4672 8.512C78.1952 8.992 77.8152 9.372 77.3272 9.652C76.8392 9.924 76.2872 10.06 75.6712 10.06ZM75.6712 9.304C76.1272 9.304 76.5312 9.204 76.8832 9.004C77.2352 8.796 77.5112 8.508 77.7112 8.14C77.9192 7.764 78.0232 7.332 78.0232 6.844C78.0232 6.348 77.9192 5.916 77.7112 5.548C77.5112 5.18 77.2352 4.896 76.8832 4.696C76.5312 4.488 76.1312 4.384 75.6832 4.384C75.2352 4.384 74.8352 4.488 74.4832 4.696C74.1312 4.896 73.8512 5.18 73.6432 5.548C73.4352 5.916 73.3312 6.348 73.3312 6.844C73.3312 7.332 73.4352 7.764 73.6432 8.14C73.8512 8.508 74.1312 8.796 74.4832 9.004C74.8352 9.204 75.2312 9.304 75.6712 9.304ZM83.8487 10V3.7H86.6327C87.3447 3.7 87.9047 3.836 88.3127 4.108C88.7287 4.38 88.9367 4.78 88.9367 5.308C88.9367 5.82 88.7407 6.216 88.3487 6.496C87.9567 6.768 87.4407 6.904 86.8007 6.904L86.9687 6.652C87.7207 6.652 88.2727 6.792 88.6247 7.072C88.9767 7.352 89.1527 7.756 89.1527 8.284C89.1527 8.828 88.9527 9.252 88.5527 9.556C88.1607 9.852 87.5487 10 86.7167 10H83.8487ZM84.6767 9.328H86.6807C87.2167 9.328 87.6207 9.244 87.8927 9.076C88.1727 8.9 88.3127 8.62 88.3127 8.236C88.3127 7.852 88.1887 7.572 87.9407 7.396C87.6927 7.22 87.3007 7.132 86.7647 7.132H84.6767V9.328ZM84.6767 6.496H86.5727C87.0607 6.496 87.4327 6.404 87.6887 6.22C87.9527 6.036 88.0847 5.768 88.0847 5.416C88.0847 5.064 87.9527 4.8 87.6887 4.624C87.4327 4.448 87.0607 4.36 86.5727 4.36H84.6767V6.496ZM100.59 1.6H101.466V10H100.59V1.6ZM95.3341 10H94.4461V1.6H95.3341V10ZM100.674 6.124H95.2381V5.344H100.674V6.124ZM105.84 10V2.368H102.888V1.6H109.68V2.368H106.728V10H105.84ZM111.098 10V1.6H111.83L115.67 8.152H115.286L119.09 1.6H119.822V10H118.97V2.932H119.174L115.67 8.932H115.25L111.722 2.932H111.95V10H111.098ZM122.559 10V1.6H123.447V9.232H128.151V10H122.559ZM131.422 10L135.262 1.6H136.138L139.978 10H139.042L135.514 2.116H135.874L132.346 10H131.422ZM132.934 7.756L133.198 7.036H138.082L138.346 7.756H132.934ZM143.745 10.06C143.121 10.06 142.561 9.924 142.065 9.652C141.577 9.372 141.193 8.992 140.913 8.512C140.633 8.024 140.493 7.468 140.493 6.844C140.493 6.212 140.633 5.656 140.913 5.176C141.193 4.696 141.577 4.32 142.065 4.048C142.561 3.776 143.121 3.64 143.745 3.64C144.281 3.64 144.765 3.744 145.197 3.952C145.629 4.16 145.969 4.472 146.217 4.888L145.581 5.32C145.365 5 145.097 4.764 144.777 4.612C144.457 4.46 144.109 4.384 143.733 4.384C143.285 4.384 142.881 4.488 142.521 4.696C142.161 4.896 141.877 5.18 141.669 5.548C141.461 5.916 141.357 6.348 141.357 6.844C141.357 7.34 141.461 7.772 141.669 8.14C141.877 8.508 142.161 8.796 142.521 9.004C142.881 9.204 143.285 9.304 143.733 9.304C144.109 9.304 144.457 9.228 144.777 9.076C145.097 8.924 145.365 8.692 145.581 8.38L146.217 8.812C145.969 9.22 145.629 9.532 145.197 9.748C144.765 9.956 144.281 10.06 143.745 10.06ZM151.839 10V8.608L151.803 8.38V6.052C151.803 5.516 151.651 5.104 151.347 4.816C151.051 4.528 150.607 4.384 150.015 4.384C149.607 4.384 149.219 4.452 148.851 4.588C148.483 4.724 148.171 4.904 147.915 5.128L147.531 4.492C147.851 4.22 148.235 4.012 148.683 3.868C149.131 3.716 149.603 3.64 150.099 3.64C150.915 3.64 151.543 3.844 151.983 4.252C152.431 4.652 152.655 5.264 152.655 6.088V10H151.839ZM149.667 10.06C149.195 10.06 148.783 9.984 148.431 9.832C148.087 9.672 147.823 9.456 147.639 9.184C147.455 8.904 147.363 8.584 147.363 8.224C147.363 7.896 147.439 7.6 147.591 7.336C147.751 7.064 148.007 6.848 148.359 6.688C148.719 6.52 149.199 6.436 149.799 6.436H151.971V7.072H149.823C149.215 7.072 148.791 7.18 148.551 7.396C148.319 7.612 148.203 7.88 148.203 8.2C148.203 8.56 148.343 8.848 148.623 9.064C148.903 9.28 149.295 9.388 149.799 9.388C150.279 9.388 150.691 9.28 151.035 9.064C151.387 8.84 151.643 8.52 151.803 8.104L151.995 8.692C151.835 9.108 151.555 9.44 151.155 9.688C150.763 9.936 150.267 10.06 149.667 10.06ZM157.477 10.06C156.877 10.06 156.337 9.924 155.857 9.652C155.385 9.38 155.013 9.004 154.741 8.524C154.469 8.036 154.333 7.476 154.333 6.844C154.333 6.204 154.469 5.644 154.741 5.164C155.013 4.684 155.385 4.312 155.857 4.048C156.337 3.776 156.877 3.64 157.477 3.64C158.029 3.64 158.521 3.764 158.953 4.012C159.393 4.26 159.741 4.624 159.997 5.104C160.261 5.576 160.393 6.156 160.393 6.844C160.393 7.524 160.265 8.104 160.009 8.584C159.753 9.064 159.405 9.432 158.965 9.688C158.533 9.936 158.037 10.06 157.477 10.06ZM157.537 9.304C157.985 9.304 158.385 9.204 158.737 9.004C159.097 8.796 159.377 8.508 159.577 8.14C159.785 7.764 159.889 7.332 159.889 6.844C159.889 6.348 159.785 5.916 159.577 5.548C159.377 5.18 159.097 4.896 158.737 4.696C158.385 4.488 157.985 4.384 157.537 4.384C157.097 4.384 156.701 4.488 156.349 4.696C155.997 4.896 155.717 5.18 155.509 5.548C155.301 5.916 155.197 6.348 155.197 6.844C155.197 7.332 155.301 7.764 155.509 8.14C155.717 8.508 155.997 8.796 156.349 9.004C156.701 9.204 157.097 9.304 157.537 9.304ZM159.913 10V8.104L159.997 6.832L159.877 5.56V1.096H160.729V10H159.913ZM165.778 10.06C165.122 10.06 164.546 9.924 164.05 9.652C163.554 9.372 163.166 8.992 162.886 8.512C162.606 8.024 162.466 7.468 162.466 6.844C162.466 6.22 162.598 5.668 162.862 5.188C163.134 4.708 163.502 4.332 163.966 4.06C164.438 3.78 164.966 3.64 165.55 3.64C166.142 3.64 166.666 3.776 167.122 4.048C167.586 4.312 167.95 4.688 168.214 5.176C168.478 5.656 168.61 6.212 168.61 6.844C168.61 6.884 168.606 6.928 168.598 6.976C168.598 7.016 168.598 7.06 168.598 7.108H163.114V6.472H168.142L167.806 6.724C167.806 6.268 167.706 5.864 167.506 5.512C167.314 5.152 167.05 4.872 166.714 4.672C166.378 4.472 165.99 4.372 165.55 4.372C165.118 4.372 164.73 4.472 164.386 4.672C164.042 4.872 163.774 5.152 163.582 5.512C163.39 5.872 163.294 6.284 163.294 6.748V6.88C163.294 7.36 163.398 7.784 163.606 8.152C163.822 8.512 164.118 8.796 164.494 9.004C164.878 9.204 165.314 9.304 165.802 9.304C166.186 9.304 166.542 9.236 166.87 9.1C167.206 8.964 167.494 8.756 167.734 8.476L168.214 9.028C167.934 9.364 167.582 9.62 167.158 9.796C166.742 9.972 166.282 10.06 165.778 10.06ZM178.216 3.64C178.728 3.64 179.172 3.74 179.548 3.94C179.932 4.132 180.228 4.428 180.436 4.828C180.652 5.228 180.76 5.732 180.76 6.34V10H179.908V6.424C179.908 5.76 179.748 5.26 179.428 4.924C179.116 4.58 178.672 4.408 178.096 4.408C177.664 4.408 177.288 4.5 176.968 4.684C176.656 4.86 176.412 5.12 176.236 5.464C176.068 5.8 175.984 6.208 175.984 6.688V10H175.132V6.424C175.132 5.76 174.972 5.26 174.652 4.924C174.332 4.58 173.884 4.408 173.308 4.408C172.884 4.408 172.512 4.5 172.192 4.684C171.872 4.86 171.624 5.12 171.448 5.464C171.28 5.8 171.196 6.208 171.196 6.688V10H170.344V3.7H171.16V5.404L171.028 5.104C171.22 4.648 171.528 4.292 171.952 4.036C172.384 3.772 172.892 3.64 173.476 3.64C174.092 3.64 174.616 3.796 175.048 4.108C175.48 4.412 175.76 4.872 175.888 5.488L175.552 5.356C175.736 4.844 176.06 4.432 176.524 4.12C176.996 3.8 177.56 3.64 178.216 3.64ZM183.002 12.388C182.706 12.388 182.422 12.34 182.15 12.244C181.886 12.148 181.658 12.004 181.466 11.812L181.862 11.176C182.022 11.328 182.194 11.444 182.378 11.524C182.57 11.612 182.782 11.656 183.014 11.656C183.294 11.656 183.534 11.576 183.734 11.416C183.942 11.264 184.138 10.992 184.322 10.6L184.73 9.676L184.826 9.544L187.418 3.7H188.258L185.102 10.756C184.926 11.164 184.73 11.488 184.514 11.728C184.306 11.968 184.078 12.136 183.83 12.232C183.582 12.336 183.306 12.388 183.002 12.388ZM184.682 10.18L181.778 3.7H182.666L185.234 9.484L184.682 10.18Z" fill="currentcolor"/>
</svg>
